<svg width="64" height="64" viewBox="0 0 64 64" fill="none" xmlns="http://www.w3.org/2000/svg">
<g clip-path="url(#clip0_1_168)">
<path d="M46 32C46 24.2681 39.7319 18 32 18C24.2681 18 18 24.2681 18 32C18 38.5654 22.5203 44.0747 28.6182 45.5878V36.2784H25.7314V32H28.6182V30.1565C28.6182 25.3914 30.7747 23.1828 35.453 23.1828C36.34 23.1828 37.8705 23.357 38.4966 23.5306V27.4086C38.1662 27.3738 37.5922 27.3565 36.8793 27.3565C34.5838 27.3565 33.6968 28.2262 33.6968 30.4869V32H38.2698L37.4841 36.2784H33.6968V45.8975C40.629 45.0603 46.0006 39.1579 46.0006 32H46Z" fill="#0866FF"/>
<path d="M37.4835 36.2784L38.2692 32H33.6962V30.4869C33.6962 28.2262 34.5833 27.3565 36.8787 27.3565C37.5916 27.3565 38.1656 27.3738 38.496 27.4086V23.5306C37.8699 23.3564 36.3394 23.1828 35.4524 23.1828C30.7742 23.1828 28.6176 25.3914 28.6176 30.1565V32H25.7308V36.2784H28.6176V45.5878C29.7006 45.8566 30.8335 46 31.9994 46C32.5734 46 33.1396 45.9647 33.6957 45.8975V36.2784H37.483H37.4835Z" fill="white"/>
</g>
<circle cx="32" cy="32" r="31.5" stroke="#E0E0E0"/>
<defs>
<clipPath id="clip0_1_168">
<rect width="28" height="28" fill="white" transform="translate(18 18)"/>
</clipPath>
</defs>
</svg>
