<svg width="25" height="33" viewBox="0 0 25 33" fill="none" xmlns="http://www.w3.org/2000/svg">
<g clip-path="url(#clip0_1_235)">
<path d="M18.7061 12.8838C17.6012 14.3918 17.0179 15.2226 16.0083 15.4218L14.6622 15.8998C15.5203 15.547 16.558 14.9552 17.2647 13.9821C18.8407 11.8139 21.3983 9.85635 24.5 10.8124C24.5 10.8124 21.6788 8.13778 19.1268 9.69701C17.074 10.949 16.6477 12.1724 15.9803 13.4187C16.0588 13.2195 16.1205 13.009 16.171 12.7813C16.715 10.3173 19.0146 5.72495 21.9817 5.49732C21.9817 5.49732 18.0275 3.14709 15.2623 7.83617C13.6694 10.5392 13.9835 12.8553 13.748 14.6479C13.1534 16.0022 12.9066 14.0219 12.8674 13.6805C12.8786 13.3049 12.9179 12.9407 13.002 12.6106C13.4058 11.0741 14.8921 8.16054 14.8921 5.53716C14.8921 3.09587 12.7832 2.15123 12.4972 0.00585938C12.2111 2.15123 10.1022 3.10156 10.1022 5.53716C10.1022 8.15485 11.5886 11.0741 11.9924 12.6106C12.0821 12.9521 12.1214 13.3333 12.127 13.7146C12.0821 14.1357 11.8298 15.9624 11.252 14.6479C11.0109 12.8553 11.3306 10.5392 9.73767 7.83617C6.97254 3.15278 3.01835 5.49732 3.01835 5.49732C5.98539 5.72495 8.285 10.3173 8.82905 12.7813C8.87953 13.0033 8.94122 13.2138 9.01975 13.4187C8.3523 12.1724 7.92042 10.949 5.87322 9.69701C3.32683 8.14347 0.5 10.8124 0.5 10.8124C3.60166 9.85635 6.16487 11.8139 7.73533 13.9821C8.44204 14.9552 9.48528 15.5527 10.3378 15.8998L8.9917 15.4218C7.98212 15.2283 7.39881 14.3918 6.29388 12.8838C3.99988 9.75961 1.3918 12.3147 1.3918 12.3147C1.3918 12.3147 3.11369 12.457 3.55118 14.2723C3.9494 15.8998 6.00783 15.6494 7.20811 15.9283C7.63999 16.0307 7.67364 16.1957 7.64559 16.3095C7.61194 16.429 7.48855 16.6396 7.14641 16.4575C5.90687 15.7974 5.72178 15.8827 4.80194 16.0933C2.83326 16.5428 2.88373 18.802 2.88373 18.802C3.55679 17.8517 4.43737 17.5956 5.11603 17.3395C6.56871 16.7932 7.69607 17.2257 8.13917 17.8232C8.75053 18.6541 11.7905 17.1688 12.5028 16.7989C13.2151 17.1631 16.2551 18.6541 16.8664 17.8232C17.3095 17.22 18.4369 16.7932 19.8896 17.3395C20.5682 17.5956 21.4488 17.8517 22.1219 18.802C22.1219 18.802 22.1724 16.5428 20.2037 16.0933C19.2782 15.8827 19.0931 15.7974 17.8592 16.4575C17.5171 16.6396 17.3881 16.429 17.36 16.3095C17.332 16.1957 17.36 16.0307 17.7975 15.9283C18.9922 15.6494 21.0562 15.8998 21.4544 14.2723C21.8975 12.457 23.6138 12.3147 23.6138 12.3147C23.6138 12.3147 21.0057 9.75392 18.7117 12.8838H18.7061Z" fill="#700606"/>
<path d="M13.7264 19.1319C13.7264 19.7579 13.2273 20.2644 12.6103 20.2644C11.9933 20.2644 11.4941 19.7579 11.4941 19.1319C11.4941 18.506 11.9933 17.9995 12.6103 17.9995C13.2273 17.9995 13.7264 18.506 13.7264 19.1319Z" fill="#700606"/>
<path d="M12.6029 33.0001L10.1406 27.1672L12.6029 21.3286L15.0707 27.1672L12.6029 33.0001Z" fill="#700606"/>
</g>
<defs>
<clipPath id="clip0_1_235">
<rect width="24" height="33" fill="white" transform="translate(0.5)"/>
</clipPath>
</defs>
</svg>
