<svg width="64" height="64" viewBox="0 0 64 64" fill="none" xmlns="http://www.w3.org/2000/svg">
<g clip-path="url(#clip0_1_177)">
<path d="M32 20.5211C35.7406 20.5211 36.1836 20.5375 37.6547 20.6031C39.0219 20.6633 39.7602 20.893 40.2523 21.0844C40.9031 21.3359 41.3734 21.6422 41.8602 22.1289C42.3523 22.6211 42.6531 23.0859 42.9047 23.7367C43.0961 24.2289 43.3258 24.9727 43.3859 26.3344C43.4516 27.8109 43.468 28.2539 43.468 31.9891C43.468 35.7297 43.4516 36.1727 43.3859 37.6438C43.3258 39.0109 43.0961 39.7492 42.9047 40.2414C42.6531 40.8922 42.3469 41.3625 41.8602 41.8492C41.368 42.3414 40.9031 42.6422 40.2523 42.8938C39.7602 43.0852 39.0164 43.3148 37.6547 43.375C36.1781 43.4406 35.7352 43.457 32 43.457C28.2594 43.457 27.8164 43.4406 26.3453 43.375C24.9781 43.3148 24.2398 43.0852 23.7477 42.8938C23.0969 42.6422 22.6266 42.3359 22.1398 41.8492C21.6477 41.357 21.3469 40.8922 21.0953 40.2414C20.9039 39.7492 20.6742 39.0055 20.6141 37.6438C20.5484 36.1672 20.532 35.7242 20.532 31.9891C20.532 28.2484 20.5484 27.8055 20.6141 26.3344C20.6742 24.9672 20.9039 24.2289 21.0953 23.7367C21.3469 23.0859 21.6531 22.6156 22.1398 22.1289C22.632 21.6367 23.0969 21.3359 23.7477 21.0844C24.2398 20.893 24.9836 20.6633 26.3453 20.6031C27.8164 20.5375 28.2594 20.5211 32 20.5211ZM32 18C28.1992 18 27.7234 18.0164 26.2305 18.082C24.743 18.1477 23.7203 18.3883 22.8344 18.7328C21.9102 19.0937 21.1281 19.5695 20.3516 20.3516C19.5695 21.1281 19.0938 21.9102 18.7328 22.8289C18.3883 23.7203 18.1477 24.7375 18.082 26.225C18.0164 27.7234 18 28.1992 18 32C18 35.8008 18.0164 36.2766 18.082 37.7695C18.1477 39.257 18.3883 40.2797 18.7328 41.1656C19.0938 42.0898 19.5695 42.8719 20.3516 43.6484C21.1281 44.425 21.9102 44.9062 22.8289 45.2617C23.7203 45.6062 24.7375 45.8469 26.225 45.9125C27.718 45.9781 28.1938 45.9945 31.9945 45.9945C35.7953 45.9945 36.2711 45.9781 37.7641 45.9125C39.2516 45.8469 40.2742 45.6062 41.1602 45.2617C42.0789 44.9062 42.8609 44.425 43.6375 43.6484C44.4141 42.8719 44.8953 42.0898 45.2508 41.1711C45.5953 40.2797 45.8359 39.2625 45.9016 37.775C45.9672 36.282 45.9836 35.8062 45.9836 32.0055C45.9836 28.2047 45.9672 27.7289 45.9016 26.2359C45.8359 24.7484 45.5953 23.7258 45.2508 22.8398C44.9063 21.9102 44.4305 21.1281 43.6484 20.3516C42.8719 19.575 42.0898 19.0938 41.1711 18.7383C40.2797 18.3937 39.2625 18.1531 37.775 18.0875C36.2766 18.0164 35.8008 18 32 18Z" fill="url(#paint0_linear_1_177)"/>
<path d="M32 24.8086C28.0297 24.8086 24.8086 28.0297 24.8086 32C24.8086 35.9703 28.0297 39.1914 32 39.1914C35.9703 39.1914 39.1914 35.9703 39.1914 32C39.1914 28.0297 35.9703 24.8086 32 24.8086ZM32 36.6648C29.4242 36.6648 27.3352 34.5758 27.3352 32C27.3352 29.4242 29.4242 27.3352 32 27.3352C34.5758 27.3352 36.6648 29.4242 36.6648 32C36.6648 34.5758 34.5758 36.6648 32 36.6648Z" fill="url(#paint1_linear_1_177)"/>
<path d="M41.1547 24.5242C41.1547 25.4539 40.4 26.2032 39.4758 26.2032C38.5461 26.2032 37.7969 25.4485 37.7969 24.5242C37.7969 23.5946 38.5516 22.8453 39.4758 22.8453C40.4 22.8453 41.1547 23.6 41.1547 24.5242Z" fill="url(#paint2_linear_1_177)"/>
</g>
<circle cx="32" cy="32" r="31.5" stroke="#E0E0E0"/>
<defs>
<linearGradient id="paint0_linear_1_177" x1="31.9918" y1="18" x2="31.9918" y2="45.9945" gradientUnits="userSpaceOnUse">
<stop stop-color="#DA5595"/>
<stop offset="1" stop-color="#D9A113"/>
</linearGradient>
<linearGradient id="paint1_linear_1_177" x1="32" y1="24.8086" x2="32" y2="39.1914" gradientUnits="userSpaceOnUse">
<stop stop-color="#DA5595"/>
<stop offset="1" stop-color="#D9A113"/>
</linearGradient>
<linearGradient id="paint2_linear_1_177" x1="39.4758" y1="22.8453" x2="39.4758" y2="26.2032" gradientUnits="userSpaceOnUse">
<stop stop-color="#DA5595"/>
<stop offset="1" stop-color="#D9A113"/>
</linearGradient>
<clipPath id="clip0_1_177">
<rect width="28" height="28" fill="white" transform="translate(18 18)"/>
</clipPath>
</defs>
</svg>
